Coordinates
version=1
nRows=9
nColumns=63
inDegrees=yes

Units are S.I. units (second, meters, Newtons, ...)
If the header above contains a line with 'inDegrees', this indicates whether rotational values are in degrees (yes) or radians (no).

endheader
time	pelvis_tilt	pelvis_list	pelvis_rotation	pelvis_tx	pelvis_ty	pelvis_tz	hip_flexion_r	hip_adduction_r	hip_rotation_r	knee_angle_r	knee_angle_r_beta	ankle_angle_r	subtalar_angle_r	mtp_angle_r	hip_flexion_l	hip_adduction_l	hip_rotation_l	knee_angle_l	knee_angle_l_beta	ankle_angle_l	subtalar_angle_l	mtp_angle_l	L5_S1_Flex_Ext	L5_S1_Lat_Bending	L5_S1_axial_rotation	L4_L5_Flex_Ext	L4_L5_Lat_Bending	L4_L5_axial_rotation	L3_L4_Flex_Ext	L3_L4_Lat_Bending	L3_L4_axial_rotation	L2_L3_Flex_Ext	L2_L3_Lat_Bending	L2_L3_axial_rotation	L1_L2_Flex_Ext	L1_L2_Lat_Bending	L1_L2_axial_rotation	L1_T12_Flex_Ext	L1_T12_Lat_Bending	L1_T12_axial_rotation	Abs_r3	Abs_r2	Abs_r1	Abs_t1	Abs_t2	neck_flexion	neck_bending	neck_rotation	arm_flex_r	arm_add_r	arm_rot_r	elbow_flex_r	pro_sup_r	wrist_flex_r	wrist_dev_r	arm_flex_l	arm_add_l	arm_rot_l	elbow_flex_l	pro_sup_l	wrist_flex_l	wrist_dev_l
      1.36666667	      5.59658883	      0.12961923	     99.48581072	      0.11853840	      0.81157018	      0.82377680	      4.56609916	      2.18910500	     -8.13713598	     10.56260093	      0.18435216	     30.51242907	      8.99226000	      0.00000000	      6.39588886	     -1.06992407	      5.80078861	     11.20337689	      0.19553581	     29.30480276	     -1.23163288	      0.00000000	      0.00070448	      0.39957921	     -0.48217180	      0.00130829	      0.53144035	     -0.51230754	      0.00115739	      0.97153689	     -0.51230754	      0.00080515	      0.97153689	     -0.42190032	      0.00065418	      0.81482193	     -0.39176459	      0.00040254	      0.61894820	     -0.36162885	      0.00503202	      4.52011995	     -2.68169489	      0.00000000	      0.00000000	     19.93070374	      5.70830811	      8.76108518	      0.94908824	    -50.10205286	    -88.79987372	     78.84882264	     85.03393582	    -10.90019739	     -1.38189083	    -18.82042048	    -45.18002924	    -94.37390029	     72.21270654	     55.27618050	     18.13436222	     -6.51448560
      1.38333333	      5.45360580	      0.07544483	     99.49412066	      0.11832613	      0.81134776	      0.82397605	      4.73066165	      1.95764623	     -8.61703496	     10.76056171	      0.18780723	     30.98674766	      9.84340537	      0.00000000	      6.47897196	     -0.86086125	      6.32016047	     11.08602829	      0.19348769	     29.65427336	     -1.59285992	      0.00000000	      0.00544693	      0.38579318	     -0.34359530	      0.01011549	      0.51310493	     -0.36507001	      0.00894876	      0.93801754	     -0.36507001	      0.00622529	      0.93801754	     -0.30064589	      0.00505802	      0.78670945	     -0.27917118	      0.00311238	      0.59759363	     -0.25769648	      0.03890687	      4.36416960	     -1.91097400	      0.00000000	      0.00000000	     20.56727356	      5.85013923	      7.84665029	      1.53671419	    -47.95033222	    -88.86048596	     75.89424132	     87.57002493	    -15.36224751	     -2.40468935	    -15.35248849	    -43.33578160	    -91.14095211	     70.60555186	     51.13308644	     16.82821086	     -4.29343511
      1.40000000	      5.31761381	     -0.06547087	     99.55674653	      0.11811635	      0.81090310	      0.82390512	      4.93895944	      1.70753191	     -9.37078941	     10.89714496	      0.19019106	     31.48300277	     10.93856718	      0.00000000	      6.62533639	     -0.65051618	      6.82749450	     10.92779868	      0.19072607	     30.03896408	     -1.82208999	      0.00000000	      0.01767072	      0.36522571	     -0.25816284	      0.03281630	      0.48575019	     -0.27429802	      0.02903123	      0.88800979	     -0.27429802	      0.02019587	      0.88800979	     -0.22589249	      0.01640903	      0.74476826	     -0.20975731	      0.01009705	      0.56573462	     -0.19362213	      0.12622020	      4.13150625	     -1.43582428	      0.00000000	      0.00000000	     21.32645144	      6.27435628	      7.19829940	      1.49012561	    -46.03182759	    -88.07468416	     71.33972760	     88.53830474	    -22.37403998	     -5.11278840	    -12.17651573	    -41.18471374	    -88.49203869	     68.77941894	     43.68666832	     14.43620648	     -1.34981288
      1.41666667	      5.25654706	     -0.24154198	     99.58759204	      0.11794030	      0.81017779	      0.82361834	      5.17625302	      1.55484092	     -9.90382713	     11.01027179	      0.19216549	     31.92669009	     11.75741841	      0.00000000	      6.81965553	     -0.53191322	      7.17702553	     10.81925665	      0.18883165	     30.49003212	     -1.75721731	      0.00000000	      0.03328569	      0.35113983	     -0.12944827	      0.06181485	      0.46701597	     -0.13753879	      0.05468506	      0.85376137	     -0.13753879	      0.03804221	      0.85376137	     -0.11326724	      0.03090909	      0.71604433	     -0.10517672	      0.01901944	      0.54391559	     -0.09708620	      0.23775634	      3.97216394	     -0.71995246	      0.00000000	      0.00000000	     22.03743416	      6.40630529	      6.30085202	     -0.16845020	    -44.65278357	    -87.11896693	     65.17289530	     88.93427826	    -29.94353032	     -8.43888982	     -8.74424630	    -39.09360472	    -85.91216389	     66.39354085	     37.59634604	     11.05409107	      0.27059230
      1.43333333	      5.21010783	     -0.39015677	     99.60174011	      0.11770158	      0.80911417	      0.82326195	      5.42338960	      1.39496544	    -10.50471561	     11.21752393	      0.19578273	     32.43379958	     12.58543268	      0.00000000	      7.00258802	     -0.43026786	      7.43563921	     10.80438456	      0.18857208	     30.94994960	     -1.66344606	      0.00000000	      0.03757208	      0.34213692	     -0.12282473	      0.06977511	      0.45504211	     -0.13050127	      0.06172717	      0.83187172	     -0.13050127	      0.04294113	      0.83187172	     -0.10747163	      0.03488943	      0.69768561	     -0.09979509	      0.02146869	      0.52997009	     -0.09211854	      0.26837361	      3.87032130	     -0.68311427	      0.00000000	      0.00000000	     22.68393291	      6.73633611	      6.30571708	     -1.62565362	    -43.85405671	    -83.34797963	     57.99714174	     89.07093634	    -37.83988829	     -9.43904614	     -6.76477377	    -37.25221381	    -84.17545124	     63.21857125	     33.45989912	      8.17947084	      0.12930241
      1.45000000	      5.23997992	     -0.52367430	     99.51790747	      0.11758144	      0.80773873	      0.82276091	      5.67227959	      1.34760899	    -10.81850692	     11.43905380	      0.19964915	     32.86693046	     13.16042582	      0.00000000	      7.16862392	     -0.41333255	      7.59063513	     10.85600434	      0.18947302	     31.38474144	     -1.55211932	      0.00000000	      0.04189845	      0.34422288	     -0.12141663	      0.07780961	      0.45781642	     -0.12900517	      0.06883496	      0.83694350	     -0.12900517	      0.04788574	      0.83694350	     -0.10623955	      0.03890690	      0.70193929	     -0.09865101	      0.02394077	      0.53320123	     -0.09106247	      0.29927642	      3.89391801	     -0.67528285	      0.00000000	      0.00000000	     23.31650786	      6.86489236	      6.34419961	     -3.06566128	    -43.21087405	    -78.36420105	     51.10440644	     89.12047604	    -39.83886362	     -6.07505754	     -5.49119320	    -35.89912743	    -81.92144413	     59.14208226	     33.12324445	      5.97543570	     -1.11148023
      1.46666667	      5.29154635	     -0.59178938	     99.43285804	      0.11732787	      0.80616140	      0.82230840	      5.88393128	      1.29360778	    -11.33453009	     11.75529251	      0.20516856	     33.41214092	     13.98311628	      0.00000000	      7.26118070	     -0.42984302	      7.68461094	     10.95900130	      0.19127066	     31.81749147	     -1.34814190	      0.00000000	      0.03635560	      0.36204093	     -0.13099077	      0.06751599	      0.48151444	     -0.13917769	      0.05972862	      0.88026632	     -0.13917769	      0.04155082	      0.88026632	     -0.11461692	      0.03375981	      0.73827387	     -0.10643000	      0.02077359	      0.56080140	     -0.09824308	      0.25968442	      4.09547943	     -0.72853137	      0.00000000	      0.00000000	     23.90507768	      6.61843914	      6.97161021	     -4.31585655	    -43.00656611	    -71.01161045	     44.55822081	     89.09600242	    -38.89080355	     -0.16333114	     -4.97639350	    -34.95334940	    -78.17986373	     54.49663223	     37.12939227	      1.60237279	     -3.91864250
      1.48333333	      5.40497536	     -0.56818389	     99.11347973	      0.11723907	      0.80447719	      0.82177572	      6.03295937	      1.32779022	    -11.57563428	     12.12284988	      0.21158365	     33.92891728	     14.73720287	      0.00000000	      7.22928856	     -0.54814538	      7.54460284	     11.10115366	      0.19375168	     32.36224034	     -1.13790366	      0.00000000	      0.02595443	      0.39736226	     -0.10101195	      0.04819997	      0.52849180	     -0.10732520	      0.04264053	      0.96614659	     -0.10732520	      0.02966332	      0.96614659	     -0.08838545	      0.02410128	      0.81030112	     -0.08207221	      0.01483036	      0.61551414	     -0.07575896	      0.18538990	      4.49504133	     -0.56179815	      0.00000000	      0.00000000	     24.35239960	      6.01762966	      7.41011147	     -4.54968758	    -43.17310949	    -61.87742177	     38.02370389	     89.01223367	    -34.81047796	      5.44196339	     -4.58387772	    -34.09369659	    -74.50009126	     49.47730061	     54.87597111	     -7.24684832	     -5.10603152
      1.50000000	      5.53861677	     -0.48014386	     98.88721786	      0.11709896	      0.80272254	      0.82141158	      6.11554832	      1.41029911	    -11.64395905	     12.50664244	      0.21828209	     34.41711872	     15.09590178	      0.00000000	      7.16725309	     -0.68542980	      7.52147460	     11.31330480	      0.19745442	     32.94214920	     -0.97959668	      0.00000000	      0.00484301	      0.44951890	     -0.10005531	      0.00899395	      0.59786013	     -0.10630877	      0.00795658	      1.09296024	     -0.10630877	      0.00553508	      1.09296024	     -0.08754840	      0.00449722	      0.91665893	     -0.08129494	      0.00276730	      0.69630477	     -0.07504149	      0.03459313	      5.08504765	     -0.55647764	      0.00000000	      0.00000000	     24.69749430	      5.22588364	      8.59668340	     -3.39924117	    -43.36296198	    -51.01867220	     31.71659883	     88.69781557	    -30.49338359	      8.30205752	     -5.00522433	    -33.87913812	    -68.99657782	     43.46811113	     76.77843622	    -15.87661303	     -2.63567362
